<?xml version="1.0" encoding="UTF-8"?>
<svg version="1.1" xmlns="http://www.w3.org/2000/svg" width="1000" height="1000">
<path d="M0 0 C330 0 660 0 1000 0 C1000 330 1000 660 1000 1000 C670 1000 340 1000 0 1000 C0 670 0 340 0 0 Z " fill="#040308" transform="translate(0,0)"/>
<path d="M0 0 C0.76991776 -0.00350464 1.53983551 -0.00700928 2.33308411 -0.01062012 C4.86415777 -0.01938263 7.39494915 -0.01360716 9.92602539 -0.00683594 C11.69430088 -0.0081843 13.462576 -0.01012626 15.23085022 -0.01263428 C18.93193094 -0.01557824 22.63291493 -0.01131185 26.33398438 -0.00195312 C31.06607498 0.0094326 35.79793846 0.00288289 40.53002071 -0.00909805 C44.18040155 -0.01634346 47.83072903 -0.01401628 51.48111153 -0.00884247 C53.22533762 -0.00751295 54.96956864 -0.00912912 56.71378899 -0.01380157 C59.15697841 -0.01891005 61.59980609 -0.01109594 64.04296875 0 C64.75643463 -0.00404846 65.46990051 -0.00809692 66.20498657 -0.01226807 C70.81330348 0.0262869 74.70700947 0.87017989 79.08618164 2.25878906 C80.81250263 2.46097648 82.54575905 2.61306533 84.28149414 2.70410156 C90.37648093 3.18063006 96.06528868 4.56683264 101.96118164 6.13378906 C104.07807541 6.68309935 106.19526072 7.23128741 108.31274414 7.77832031 C109.31337891 8.03822754 110.31401367 8.29813477 111.3449707 8.56591797 C114.66128421 9.40415254 117.98847176 10.12013433 121.33618164 10.82128906 C129.32353012 12.65324972 136.51247124 16.08066617 143.93383789 19.47753906 C144.80258545 19.87312012 145.67133301 20.26870117 146.56640625 20.67626953 C148.2827102 21.45987881 149.9959778 22.25018602 151.70556641 23.04833984 C156.68374806 25.33238255 161.59929497 27.05373253 166.86254883 28.55664062 C169.71815977 29.4583465 172.10886211 30.74311112 174.64868164 32.32128906 C178.09856924 34.43274396 181.54207889 36.53261025 185.06665039 38.51660156 C194.63303188 43.93422941 203.39925208 49.97294487 212.07592773 56.71337891 C214.13001009 58.29248278 216.20642682 59.83649257 218.29321289 61.37207031 C225.9255707 66.99306063 233.14048598 72.79297783 240.08618164 79.25878906 C241.374203 80.36720585 242.66577365 81.47151411 243.96118164 82.57128906 C256.17708818 93.22613656 266.64757308 105.37694452 276.50463867 118.20166016 C277.59031093 119.61380502 278.68005223 121.02282806 279.77319336 122.42919922 C288.29676009 133.43572836 295.41586587 144.66581377 301.87084961 156.99169922 C303.33234482 159.71798378 304.90049945 162.36859635 306.48803711 165.02270508 C309.83973027 170.64125531 312.3227356 176.04536279 314.10180664 182.34472656 C314.90777535 184.73064979 315.78424355 186.67160651 316.94946289 188.87988281 C319.59108085 194.03194874 321.28957341 199.43486478 323.02368164 204.94628906 C323.36923096 206.03756104 323.71478027 207.12883301 324.07080078 208.25317383 C326.27793607 215.34926565 328.28326857 222.47149738 330.02368164 229.69628906 C330.22276123 230.51637451 330.42184082 231.33645996 330.62695312 232.18139648 C331.76288185 237.11755984 332.41448706 241.92910368 332.72631836 246.98632812 C333.62458891 252.65871773 337.73505865 257.77815999 342.21508789 261.20800781 C344.45261872 262.46457523 346.6207474 263.10323576 349.08618164 263.82128906 C369.65063584 270.16645523 390.76781379 284.41290119 407.08618164 298.25878906 C408.79264698 299.59451232 410.50101905 300.92780279 412.21118164 302.25878906 C416.15998227 305.41041398 419.72054202 308.77473641 423.22680664 312.40722656 C424.91760828 314.09092399 426.6491157 315.53837266 428.52368164 317.00878906 C432.70914734 320.49984796 435.65568447 324.87541438 438.84008789 329.26269531 C440.77162476 331.83919753 442.76120941 334.16485137 444.96118164 336.50878906 C464.50839177 358.03792308 486.6877714 395.26609162 488.52368164 424.69628906 C488.81010541 427.73954163 489.33870651 430.19447312 490.52368164 433.00878906 C494.73418934 443.38717119 494.3992123 455.03699813 494.38696289 466.05957031 C494.39086569 467.54965836 494.3952035 469.03974533 494.39994812 470.52983093 C494.40735002 473.63344956 494.40716366 476.73695433 494.40185547 479.84057617 C494.39607248 483.77016669 494.41299303 487.69928406 494.43620014 491.62879658 C494.45110664 494.70135613 494.45178648 497.77380617 494.44869041 500.84639549 C494.4491953 502.29291914 494.45427157 503.73945033 494.46450233 505.18593788 C494.54460943 518.09267822 492.89283454 530.27678014 488.88696289 542.60253906 C488.07642607 545.29114901 487.43589092 547.99825484 486.80786133 550.734375 C484.49946419 560.64184345 481.0410725 569.89926171 477.08618164 579.25878906 C476.55734375 580.51393311 476.55734375 580.51393311 476.01782227 581.79443359 C471.45144808 592.52541293 466.50848871 602.50540987 460.08618164 612.25878906 C459.27793945 613.58136719 459.27793945 613.58136719 458.45336914 614.93066406 C451.49713762 626.28914839 443.12868683 639.45212857 432.69946289 647.83691406 C430.94241564 649.38549808 429.47705192 651.03617661 427.96118164 652.82128906 C409.27873978 674.45571849 385.45003452 689.2962233 360.19116211 702.18066406 C358.37908417 703.10877079 356.57727935 704.05688614 354.77758789 705.00878906 C343.18142981 711.05074931 331.05220147 715.24100731 318.39086914 718.39941406 C315.10094675 719.21248424 315.10094675 719.21248424 312.00805664 720.30175781 C309.15420996 721.23650706 306.41968336 721.82542751 303.46118164 722.32128906 C299.83007564 722.92001272 299.83007564 722.92001272 296.25463867 723.77026367 C293.73995723 724.33678896 291.38124998 724.45494633 288.80493164 724.54003906 C287.29479492 724.59611328 287.29479492 724.59611328 285.75415039 724.65332031 C283.64217122 724.72363281 281.53019206 724.79394531 279.41821289 724.86425781 C277.90807617 724.92033203 277.90807617 724.92033203 276.36743164 724.97753906 C274.99167969 725.02297852 274.99167969 725.02297852 273.58813477 725.06933594 C271.1617083 725.1771984 271.1617083 725.1771984 269.1725385 725.76272364 C265.6188396 726.6076736 261.97918445 726.39634891 258.34471703 726.38742352 C257.44825956 726.38917655 256.5518021 726.39092959 255.62817925 726.39273575 C252.60263937 726.39741428 249.57714716 726.39492548 246.55160522 726.39250183 C244.36913534 726.39436888 242.18666578 726.39666915 240.00419676 726.39936715 C233.98970239 726.40550486 227.97522187 726.40534925 221.96072507 726.40417278 C215.48065045 726.40396926 209.00058034 726.40948286 202.52050781 726.41423035 C189.81753626 726.42276658 177.11456867 726.42529867 164.41159455 726.42584272 C154.08759379 726.426302 143.76359454 726.42835895 133.43959427 726.43154335 C130.46941777 726.43244088 127.49924127 726.43333069 124.52906477 726.43421823 C123.79069314 726.43443928 123.05232151 726.43466032 122.29157498 726.43488807 C101.51622375 726.44104414 80.74087304 726.44498845 59.96552086 726.44454479 C59.18192117 726.44452921 58.39832148 726.44451363 57.59097635 726.44449758 C53.61924816 726.44441447 49.64751997 726.44431543 45.67579179 726.44421288 C44.88697509 726.44419293 44.0981584 726.44417299 43.28543818 726.44415244 C41.69025675 726.444112 40.09507533 726.4440702 38.49989391 726.44402704 C13.68701651 726.44341443 -11.12584722 726.4509176 -35.9387207 726.46459961 C-63.80853147 726.47996086 -91.67833325 726.48856578 -119.54814851 726.48763639 C-122.52021114 726.48756176 -125.49227377 726.48751305 -128.4643364 726.48748207 C-129.19614592 726.48747042 -129.92795544 726.48745876 -130.68194101 726.48744675 C-142.45887747 726.48741598 -154.23580207 726.49380206 -166.012735 726.50241434 C-177.85077805 726.51089218 -189.68880228 726.51170822 -201.52684672 726.50530501 C-207.94012292 726.50203474 -214.35335613 726.5020014 -220.76662827 726.51065826 C-226.6377934 726.5185019 -232.5088813 726.51711367 -238.38004451 726.50837413 C-240.50391149 726.50683441 -242.62778418 726.50867301 -244.75164445 726.51423421 C-247.64029188 726.52129688 -250.52866858 726.5159985 -253.4173069 726.50767803 C-254.24019646 726.51264621 -255.06308601 726.51761439 -255.91091162 726.52273312 C-261.01434777 726.49169532 -265.72014558 725.83685427 -270.70019188 724.71557708 C-273.80099537 724.0757176 -276.82751355 723.96787768 -279.98803711 723.91503906 C-281.23262695 723.88539063 -282.4772168 723.85574219 -283.75952148 723.82519531 C-286.33243466 723.78072198 -288.90535137 723.73645298 -291.47827148 723.69238281 C-297.69527681 723.54382061 -303.02414978 723.23237194 -308.91381836 721.25878906 C-310.80530151 721.07962286 -312.70261655 720.95264017 -314.60131836 720.88378906 C-320.11262859 720.49943866 -324.74375941 719.17110564 -329.91772461 717.29394531 C-332.87715923 716.27145486 -335.80143978 715.5226409 -338.85131836 714.82128906 C-345.45675011 713.22598244 -351.64482653 710.8598366 -357.91381836 708.25878906 C-359.26926758 707.70578125 -359.26926758 707.70578125 -360.65209961 707.14160156 C-372.77167052 701.9346748 -383.87451605 694.40904806 -394.91381836 687.25878906 C-395.65760742 686.79214844 -396.40139648 686.32550781 -397.16772461 685.84472656 C-402.76047337 682.26296618 -407.80965905 678.13625226 -412.85913086 673.83300781 C-415.74348226 671.40233317 -418.6937073 669.08304495 -421.66381836 666.75878906 C-426.12557488 663.12399603 -429.61901636 659.23304626 -433.08959961 654.65722656 C-434.76471564 652.45482561 -436.51042987 650.3854432 -438.35131836 648.32128906 C-439.53886509 646.96716338 -440.72636231 645.61299426 -441.91381836 644.25878906 C-442.60217773 643.48535156 -443.29053711 642.71191406 -443.99975586 641.91503906 C-450.19603523 634.69691713 -454.92404532 626.96892134 -459.54858398 618.69970703 C-460.48622967 617.02327971 -461.43061523 615.35060974 -462.38061523 613.68115234 C-473.77965374 593.6374762 -483.92866925 573.25717356 -487.51928711 550.27050781 C-487.71757974 548.26909248 -487.71757974 548.26909248 -488.91381836 547.25878906 C-489.12510192 544.60894107 -489.28994502 541.97539009 -489.41381836 539.32128906 C-489.45673072 534.13176288 -489.45673072 534.13176288 -490.91381836 529.25878906 C-491.01985417 527.51126039 -491.06261006 525.75973242 -491.07495117 524.0090332 C-491.08455872 522.90930679 -491.09416626 521.80958038 -491.10406494 520.67652893 C-491.10831482 519.47777634 -491.1125647 518.27902374 -491.11694336 517.04394531 C-491.12549347 515.18472694 -491.12549347 515.18472694 -491.13421631 513.28794861 C-491.1436874 510.64904114 -491.15057072 508.01024783 -491.15405273 505.37133789 C-491.16050898 501.39680429 -491.19458851 497.4226538 -491.22631836 493.44824219 C-491.28484621 479.40978529 -490.76238971 466.01682249 -487.91381836 452.25878906 C-487.6092337 450.69196442 -487.30586449 449.12490305 -487.00366211 447.55761719 C-480.02074431 411.96255488 -461.58523582 376.70580096 -436.91381836 350.25878906 C-435.84700719 349.0124664 -434.78435833 347.76256643 -433.72631836 346.50878906 C-425.6502368 337.26553487 -416.91098988 328.40730418 -406.91381836 321.25878906 C-406.11202148 320.65164063 -405.31022461 320.04449219 -404.48413086 319.41894531 C-397.29667214 314.03368321 -389.75520972 309.2993517 -382.09643555 304.625 C-380.51266382 303.63363685 -378.94778098 302.61189238 -377.39526367 301.57226562 C-370.75470173 297.16671482 -364.09653104 293.97822993 -356.66381836 291.13378906 C-355.57206299 290.70710938 -354.48030762 290.28042969 -353.35546875 289.84082031 C-345.28847608 286.71556999 -337.19540597 283.76534958 -328.91381836 281.25878906 C-328.21514648 281.03835938 -327.51647461 280.81792969 -326.79663086 280.59082031 C-323.54526114 279.66285428 -320.2664977 279.14068273 -316.91381836 278.73535156 C-316.18670654 278.64535889 -315.45959473 278.55536621 -314.71044922 278.46264648 C-313.23548842 278.28679879 -311.75972359 278.11755378 -310.28320312 277.95532227 C-306.80158768 277.84058846 -306.80158768 277.84058846 -303.91381836 276.25878906 C-302.46715555 276.15539701 -301.01552257 276.12028672 -299.56518555 276.11352539 C-298.17804352 276.10395561 -298.17804352 276.10395561 -296.76287842 276.0941925 C-295.75565735 276.09307968 -294.74843628 276.09196686 -293.71069336 276.09082031 C-292.68075256 276.08749191 -291.65081177 276.08416351 -290.58966064 276.08073425 C-288.40393522 276.0756591 -286.21820201 276.07332611 -284.0324707 276.07348633 C-280.69200767 276.07130745 -277.3518788 276.05317888 -274.01147461 276.03417969 C-271.89038199 276.03124436 -269.7692878 276.0292605 -267.64819336 276.02832031 C-266.64906921 276.0211348 -265.64994507 276.01394928 -264.62054443 276.00654602 C-259.87589168 276.02211889 -256.25327238 276.15889405 -251.91381836 278.25878906 C-250.22998457 278.59782927 -248.53398047 278.88060767 -246.83178711 279.11035156 C-245.90043945 279.23925781 -244.9690918 279.36816406 -244.00952148 279.50097656 C-242.56996094 279.69046875 -242.56996094 279.69046875 -241.10131836 279.88378906 C-240.12227539 280.01785156 -239.14323242 280.15191406 -238.13452148 280.29003906 C-235.72833674 280.61868869 -233.32151117 280.94140993 -230.91381836 281.25878906 C-230.91381836 281.91878906 -230.91381836 282.57878906 -230.91381836 283.25878906 C-229.71756836 283.44441406 -228.52131836 283.63003906 -227.28881836 283.82128906 C-222.04784884 284.94435396 -217.53115882 287.30130848 -212.8762207 289.87036133 C-209.31741982 291.78048912 -206.93008502 292.62432133 -202.91381836 292.25878906 C-200.72676367 291.3524979 -200.72676367 291.3524979 -198.64819336 289.98535156 C-197.84889404 289.49502441 -197.04959473 289.00469727 -196.22607422 288.49951172 C-195.38052979 287.96632324 -194.53498535 287.43313477 -193.66381836 286.88378906 C-191.86865937 285.77894956 -190.07307918 284.67479417 -188.27709961 283.57128906 C-187.37813965 283.01441406 -186.47917969 282.45753906 -185.55297852 281.88378906 C-181.68175998 279.50017847 -177.77187051 277.18508939 -173.85131836 274.88378906 C-173.14644287 274.4687915 -172.44156738 274.05379395 -171.71533203 273.6262207 C-168.00527205 271.45120629 -164.27140417 269.34571933 -160.47631836 267.32128906 C-155.66198082 264.74347635 -151.04981343 261.8894889 -146.41381836 259.00878906 C-139.45976869 254.70046043 -132.37796049 250.78645105 -125.10913086 247.03808594 C-118.50981781 243.61923 -112.07502982 239.95725295 -105.66992188 236.18847656 C-99.81871209 232.75003609 -93.88371084 229.48620702 -87.91381836 226.25878906 C-86.11542696 225.2826213 -84.31724789 224.30606225 -82.51928711 223.32910156 C-81.63362061 222.84795898 -80.7479541 222.36681641 -79.83544922 221.87109375 C-62.47587204 212.43012567 -62.47587204 212.43012567 -45.53881836 202.25878906 C-38.81448741 198.07968717 -31.82855361 194.59236917 -24.71313477 191.14306641 C-22.25609833 189.93555135 -19.83887019 188.6540543 -17.41381836 187.38378906 C-5.79077395 181.60147049 6.89257195 182.63521637 19.08618164 186.25878906 C24.25975665 188.35139139 29.04357608 191.18805012 33.85766602 193.98974609 C36.95245849 195.75209615 40.11340047 197.37453902 43.27905273 199.00512695 C50.56702538 202.76177617 57.6719162 206.72006382 64.66259766 211.00268555 C69.52458821 213.96709004 74.49576334 216.66655731 79.53686523 219.31225586 C83.73215102 221.5192364 87.85666508 223.82270577 91.96118164 226.19628906 C97.91422651 229.63177641 103.95919381 232.85479929 110.04833984 236.04150391 C113.82411049 238.02766507 117.52099157 240.07151152 121.14868164 242.32128906 C125.23911701 244.84487969 129.46010195 246.96477582 133.77368164 249.07128906 C138.98421484 251.62416567 144.02237856 254.33115502 148.96118164 257.38378906 C156.94601971 262.31518115 165.22639557 266.67020984 173.50683594 271.08081055 C180.8326102 274.99924795 187.99539838 279.07977152 195.03540039 283.48925781 C198.08157629 285.33859668 198.08157629 285.33859668 201.50415039 286.71972656 C205.46479172 288.42146341 209.03653331 290.45938423 212.71118164 292.69628906 C213.67411133 293.26959961 213.67411133 293.26959961 214.65649414 293.85449219 C221.50428684 297.98702283 226.36912518 301.49039018 229.08618164 309.25878906 C229.6449393 313.13159698 229.63525525 316.95139483 229.60757446 320.85934448 C229.61522556 322.01068599 229.62287665 323.16202749 229.6307596 324.34825814 C229.65135942 328.19736561 229.64344709 332.04587304 229.63549805 335.89501953 C229.64200919 338.65828164 229.65443281 341.42151062 229.66647339 344.18475342 C229.69193481 350.9061075 229.69555889 357.62730167 229.69087286 364.34869586 C229.68730254 369.81373122 229.69081429 375.27871814 229.69932175 380.74374771 C229.70051212 381.52242843 229.7017025 382.30110915 229.70292895 383.10338626 C229.70535253 384.68543068 229.7077808 386.2674751 229.71021371 387.84951951 C229.73195225 402.67649 229.72764565 417.50336945 229.71544401 432.33034505 C229.70510688 445.88350158 229.72761529 459.43637057 229.76564045 472.98947023 C229.80441916 486.91833184 229.82090544 500.8470575 229.81339395 514.77597344 C229.80957313 522.59099869 229.81451325 530.40577923 229.84282303 538.22076035 C229.86668084 544.87389081 229.8694274 551.52662594 229.84524269 558.17976199 C229.83348491 561.57177516 229.83447665 564.96247518 229.8552475 568.35453415 C229.87617655 572.03844537 229.8599896 575.72042412 229.83462524 579.40426636 C229.84937381 580.4669284 229.86412238 581.52959045 229.87931788 582.62445438 C229.77081908 590.13188548 227.79424944 595.37018694 223.08618164 601.25878906 C220.56181252 603.55244978 218.01131481 605.50607769 215.08618164 607.25878906 C214.27564331 607.77916748 214.27564331 607.77916748 213.44873047 608.31005859 C210.12066952 609.64651048 206.88956095 609.58375257 203.35571289 609.59472656 C202.60585617 609.60138336 201.85599945 609.60804016 201.0834198 609.61489868 C199.49736983 609.62500845 197.91127747 609.62971622 196.32519531 609.62939453 C193.92382592 609.63374353 191.5243325 609.67000962 189.12329102 609.70800781 C179.70632376 609.77709457 172.02378521 609.35338714 164.52368164 603.13378906 C163.08618164 601.25878906 163.08618164 601.25878906 163.08618164 599.25878906 C162.42618164 599.25878906 161.76618164 599.25878906 161.08618164 599.25878906 C159.27989203 593.08218306 158.80575463 587.57204223 158.8480835 581.15660095 C158.84652449 580.16648484 158.84496548 579.17636873 158.84335923 578.15624911 C158.84041403 574.8530354 158.85155895 571.55002062 158.86254883 568.24682617 C158.86307328 565.87279767 158.86263688 563.49876879 158.86131287 561.1247406 C158.85998086 556.01963934 158.86438037 550.91458624 158.87291718 545.80949211 C158.88530706 537.73750997 158.8783817 529.66562271 158.86749268 521.59364319 C158.8640151 518.82860863 158.86066997 516.06357393 158.85736465 513.29853916 C158.85653332 512.60766702 158.85570198 511.91679487 158.85484545 511.20498721 C158.84567334 503.35207331 158.84071369 495.49915873 158.83764648 487.64624023 C158.83736074 486.92887164 158.83707499 486.21150306 158.83678058 485.47239602 C158.8326729 473.83786508 158.84391271 462.20338532 158.85902199 450.56886583 C158.87399318 438.61185836 158.86600889 426.65500588 158.83840489 414.69802099 C158.82369494 407.98914894 158.82026825 401.28064455 158.84462738 394.5717907 C158.86672267 388.26542395 158.86127995 381.95968857 158.83464241 375.65334511 C158.82986495 373.33903157 158.83536047 371.02467063 158.8518734 368.71041107 C158.87293183 365.55083496 158.85714045 362.39349316 158.83221436 359.23399353 C158.85463987 357.86034957 158.85463987 357.86034957 158.87751842 356.45895523 C158.78195585 350.72380004 157.59847186 347.73273095 153.58760285 343.59420115 C151.77092432 341.97838911 150.02133213 340.74093052 147.83618164 339.66894531 C147.07039795 339.28158203 146.30461426 338.89421875 145.515625 338.49511719 C144.71390869 338.10775391 143.91219238 337.72039062 143.08618164 337.32128906 C141.37814418 336.46000035 139.67111812 335.59670311 137.96508789 334.73144531 C137.13122559 334.31266113 136.29736328 333.89387695 135.43823242 333.46240234 C132.23768741 331.82458971 129.13536433 330.06028956 126.02368164 328.25878906 C113.2875513 320.90308416 100.42663151 313.81996446 87.34179688 307.10131836 C82.71473517 304.70890948 78.2712065 302.1723281 73.88208008 299.3684082 C71.42964747 297.85314091 68.87839349 296.61510739 66.27368164 295.38378906 C62.19814221 293.38948495 58.38117586 291.24497575 54.58618164 288.75878906 C49.87345568 285.67347926 45.02543048 283.17032011 39.96508789 280.70800781 C36.54793715 278.98784102 33.32574984 277.04137437 30.07055664 275.03613281 C25.22961944 272.15311393 20.27680807 269.46957388 15.32983398 266.7734375 C9.38856093 263.51040793 9.38856093 263.51040793 6.92211914 261.45800781 C4.17004243 259.66037473 2.31150334 259.85311348 -0.91381836 260.25878906 C-3.99631029 261.59853602 -3.99631029 261.59853602 -7.10131836 263.57128906 C-8.33945665 264.30981003 -9.57774623 265.04807741 -10.81616211 265.78613281 C-11.47600098 266.18558105 -12.13583984 266.5850293 -12.81567383 266.99658203 C-16.57107721 269.25576698 -20.3699059 271.44011952 -24.16381836 273.63378906 C-24.96916016 274.10155762 -25.77450195 274.56932617 -26.60424805 275.05126953 C-31.98317748 278.16882255 -37.4027725 281.20245015 -42.85131836 284.19628906 C-50.32943991 288.30896629 -57.645173 292.66217311 -64.94702148 297.07885742 C-69.84879627 300.03803088 -74.78001491 302.88607746 -79.83178711 305.58300781 C-91.21892055 311.77449101 -102.42938897 318.30785589 -113.51123047 325.02880859 C-118.03281219 327.76001536 -122.61482011 330.37019584 -127.22631836 332.94628906 C-140.79796872 339.28619792 -140.79796872 339.28619792 -150.91381836 349.25878906 C-151.01352075 352.35054607 -151.05101621 355.41999617 -151.04512024 358.51210022 C-151.04723595 359.48342799 -151.04935167 360.45475576 -151.05153149 361.45551771 C-151.05755353 364.73117984 -151.05652977 368.00680369 -151.05566406 371.2824707 C-151.05869416 373.62281358 -151.0622152 375.96315586 -151.06619263 378.30349731 C-151.07409455 383.35466134 -151.07923145 388.40581826 -151.08248329 393.45698738 C-151.08838353 401.44501385 -151.1048754 409.43300169 -151.12382507 417.42100525 C-151.13018227 420.15384381 -151.13649069 422.88668248 -151.14280224 425.61952114 C-151.144386 426.3025632 -151.14596976 426.98560526 -151.14760152 427.68934556 C-151.16554631 435.46859383 -151.1817674 443.24784514 -151.19677734 451.02709961 C-151.19815322 451.73836474 -151.19952909 452.44962988 -151.20094665 453.1824485 C-151.22285409 464.69635609 -151.233627 476.21025269 -151.24114809 487.72417743 C-151.24922727 499.5476532 -151.27254577 511.37103493 -151.30910176 523.19445699 C-151.32912772 529.83184349 -151.34126401 536.46910181 -151.33626747 543.10652351 C-151.33162235 549.35362808 -151.3454197 555.60042012 -151.37327957 561.8474617 C-151.38019421 564.13834164 -151.38031502 566.42925388 -151.3730793 568.72013283 C-151.36418599 571.85265699 -151.37989374 574.98415168 -151.40156555 578.11659241 C-151.39312301 579.01894924 -151.38468048 579.92130607 -151.37598211 580.85100704 C-151.47778986 588.83344696 -153.91912904 595.71451011 -159.41381836 601.63378906 C-159.98100586 602.26027344 -160.54819336 602.88675781 -161.13256836 603.53222656 C-166.79093917 609.01687546 -171.21005984 609.41784751 -178.93334961 609.46191406 C-179.71014572 609.46761414 -180.48694183 609.47331421 -181.28727722 609.47918701 C-182.92880907 609.48861655 -184.57035967 609.49516285 -186.21191406 609.49902344 C-188.70729074 609.50871516 -191.20183837 609.53975125 -193.69702148 609.57128906 C-195.296626 609.57782137 -196.89623637 609.58307095 -198.49584961 609.58691406 C-199.23462845 609.59926086 -199.97340729 609.61160767 -200.73457336 609.62432861 C-207.66334297 609.59492992 -212.96353202 607.54541544 -218.22631836 602.88378906 C-218.88245117 602.31917969 -219.53858398 601.75457031 -220.21459961 601.17285156 C-224.219831 596.6612116 -224.20343855 591.73599599 -224.17883301 585.95999146 C-224.18321428 585.12761361 -224.18759555 584.29523576 -224.19210958 583.43763435 C-224.2044249 580.65026267 -224.20262179 577.86307932 -224.20092773 575.07568359 C-224.20695227 573.07647421 -224.2138766 571.07726737 -224.22163391 569.07806396 C-224.23652337 564.77341086 -224.24527226 560.46880415 -224.24934387 556.16412735 C-224.25605646 549.35675671 -224.27781004 542.54948533 -224.30187988 535.74215698 C-224.35085867 521.28939093 -224.38316935 506.83660386 -224.41381836 492.38378906 C-224.4469025 476.78808639 -224.48283535 461.19242253 -224.53794909 445.5967797 C-224.56129044 438.83062611 -224.57503698 432.06454141 -224.58144379 425.29835153 C-224.58738496 421.08719635 -224.60148377 416.87609698 -224.61778831 412.6649704 C-224.62366105 410.71349437 -224.62613721 408.76200468 -224.6249485 406.81052017 C-224.62378742 404.14407963 -224.63482138 401.47795193 -224.64880371 398.81155396 C-224.64550474 398.04160099 -224.64220576 397.27164803 -224.63880682 396.47836316 C-224.68005618 391.70307775 -225.44680344 387.80458437 -226.91381836 383.25878906 C-227.20092773 381.05883789 -227.20092773 381.05883789 -227.25756836 379.21582031 C-227.30204102 378.19391602 -227.30204102 378.19391602 -227.34741211 377.15136719 C-227.39205668 375.75294157 -227.43632131 374.35450377 -227.48022461 372.95605469 C-227.67536 367.78271215 -227.67536 367.78271215 -229.91381836 363.25878906 C-239.97869426 355.35521283 -253.97068535 349.11043603 -266.71459961 349.09082031 C-267.46919968 349.08749191 -268.22379974 349.08416351 -269.00126648 349.08073425 C-270.59572746 349.07568044 -272.19019898 349.07332545 -273.78466797 349.07348633 C-276.20745574 349.07130604 -278.62978331 349.05315136 -281.05249023 349.03417969 C-282.60652515 349.03124409 -284.16056221 349.02926041 -285.71459961 349.02832031 C-286.43150467 349.0211348 -287.14840973 349.01394928 -287.88703918 349.00654602 C-292.55846934 349.02745761 -296.47602323 349.85109773 -300.91381836 351.25878906 C-303.2214727 351.58659565 -305.53453185 351.87839527 -307.85131836 352.13378906 C-312.78813605 352.80415694 -316.54129302 353.65856339 -320.82788086 356.14550781 C-323.41925967 357.52854707 -326.07851809 358.41502057 -328.85131836 359.38378906 C-361.03177755 371.60044487 -387.29510413 399.17700538 -402.91381836 429.25878906 C-403.46811523 430.31453125 -404.02241211 431.37027344 -404.59350586 432.45800781 C-408.02999146 439.40791526 -410.23314952 446.35137059 -411.90209961 453.90722656 C-412.5569732 456.86450485 -413.3498676 459.72476909 -414.26928711 462.61035156 C-417.93660046 474.76931752 -418.37689337 486.529175 -418.35131836 499.13378906 C-418.35135864 499.97701721 -418.35139893 500.82024536 -418.35144043 501.68902588 C-418.34467661 504.12678856 -418.31948511 506.56346157 -418.28491211 509.00097656 C-418.27932785 509.72943787 -418.27374359 510.45789917 -418.26799011 511.20843506 C-418.16228978 515.85600899 -417.30987475 519.83846051 -415.91381836 524.25878906 C-415.78113031 525.81787359 -415.6956906 527.38189306 -415.66381836 528.94628906 C-413.79659516 551.0819189 -402.30151124 573.91721798 -388.91381836 591.25878906 C-388.04400434 592.42186225 -387.17556529 593.5859647 -386.30834961 594.75097656 C-382.43876545 599.89863394 -378.55995007 604.77910755 -373.91381836 609.25878906 C-372.74206055 610.40927734 -372.74206055 610.40927734 -371.54663086 611.58300781 C-364.75247928 617.98559613 -357.54697135 623.05849141 -349.70629883 628.07763672 C-347.26297466 629.68766155 -344.90152491 631.4017223 -342.54418945 633.13452148 C-333.17622518 639.59446091 -321.29701773 643.10227034 -310.47865295 646.22169495 C-308.21960626 646.87890469 -305.96980696 647.5695745 -303.73509216 648.30528259 C-291.61005339 651.91163215 -279.66170297 651.81589845 -267.08851814 651.77520943 C-263.12342035 651.76245223 -259.1587533 651.7734904 -255.19371033 651.79124451 C-247.50059755 651.82180172 -239.80761846 651.82357425 -232.11445618 651.82159424 C-222.29720471 651.82019302 -212.48005441 651.83069727 -202.66287702 651.87017196 C-198.09894011 651.88738206 -193.53539214 651.8805588 -188.97145081 651.86903381 C-186.57731916 651.8751787 -184.18318932 651.88209065 -181.7890625 651.88989258 C-180.71511734 651.88217331 -179.64117218 651.87445404 -178.53468323 651.86650085 C-168.4963896 651.93383895 -160.26016403 654.16175377 -152.91381836 661.25878906 C-150.25322575 664.60375376 -148.99396513 667.66770666 -148.41381836 671.94628906 C-148.1654103 675.23639541 -148.1654103 675.23639541 -146.40625 677.43920898 C-142.90449724 679.995636 -139.70191553 679.77819117 -135.53491211 679.68457031 C-134.72643326 679.6812822 -133.91795441 679.67799408 -133.0849762 679.67460632 C-131.37948532 679.66420128 -129.67402945 679.64427793 -127.96875 679.61547852 C-125.35714276 679.57138739 -122.74645497 679.55403781 -120.13452148 679.54199219 C-118.47630509 679.52856805 -116.81810001 679.51364506 -115.15991211 679.49707031 C-113.98796547 679.48598991 -113.98796547 679.48598991 -112.79234314 679.47468567 C-109.58604716 679.41812734 -106.97614536 679.27956473 -103.91381836 678.25878906 C-101.573194 674.93484268 -101.65899057 671.84115941 -101.64880371 667.86454773 C-101.64053055 666.54814301 -101.63225739 665.23173828 -101.62373352 663.8754425 C-101.6245581 662.41818227 -101.62555574 660.96092212 -101.62670898 659.50366211 C-101.62068409 657.96764768 -101.61375967 656.43163655 -101.60600281 654.89562988 C-101.59111455 651.588432 -101.58236474 648.28129449 -101.57829285 644.97406578 C-101.57157758 639.74199266 -101.54982018 634.51004853 -101.52575684 629.2780304 C-101.4767807 618.16748019 -101.44447778 607.05690263 -101.41381836 595.94628906 C-101.38072501 583.96178373 -101.3447476 571.97732885 -101.28968763 559.99290115 C-101.2663738 554.79478666 -101.25260655 549.59676158 -101.24619293 544.39859998 C-101.24024219 541.15982889 -101.22613491 537.92112996 -101.2098484 534.68239594 C-101.20398678 533.18405154 -101.2014972 531.68568945 -101.20268822 530.18733406 C-101.20385358 528.13606408 -101.19278188 526.08519643 -101.17883301 524.03398132 C-101.17589989 522.88785716 -101.17296677 521.741733 -101.16994476 520.5608778 C-100.58285296 512.99184467 -98.09130245 507.64576673 -92.91381836 502.25878906 C-89.06201703 499.03708326 -85.03525046 496.12426618 -80.91381836 493.25878906 C-80.02049805 492.63101562 -79.12717773 492.00324219 -78.20678711 491.35644531 C-72.2386713 487.25878906 -72.2386713 487.25878906 -69.91381836 487.25878906 C-69.91381836 486.59878906 -69.91381836 485.93878906 -69.91381836 485.25878906 C-67.73229254 483.78610637 -65.56504173 482.4461086 -63.28881836 481.13378906 C-62.6160083 480.74070557 -61.94319824 480.34762207 -61.25 479.94262695 C-59.84258322 479.12178453 -58.43344596 478.30388575 -57.02270508 477.48876953 C-55.00403963 476.31140944 -53.00619228 475.10507847 -51.01147461 473.88769531 C-49.79171737 473.15673433 -48.57167727 472.4262451 -47.35131836 471.69628906 C-46.2569043 471.035 -45.16249023 470.37371094 -44.03491211 469.69238281 C-40.58851649 468.10937006 -38.65560036 467.74146887 -34.91381836 468.25878906 C-32.26951313 469.34378529 -32.26951313 469.34378529 -29.91381836 471.25878906 C-29.29857922 474.37658978 -29.29857922 474.37658978 -29.31254578 478.30119324 C-29.30827365 479.02246173 -29.30400153 479.74373022 -29.29959995 480.48685533 C-29.29134574 482.91040163 -29.31889213 485.33222771 -29.34619141 487.75561523 C-29.34760136 489.49002542 -29.34681092 491.2244386 -29.34397888 492.95884705 C-29.34254127 497.6736552 -29.37198659 502.3878304 -29.40684867 507.10249114 C-29.43805492 512.02722342 -29.44103838 516.95196939 -29.44697571 521.87678528 C-29.46253104 531.20539147 -29.50358234 540.53370551 -29.55372316 549.86218292 C-29.60956411 560.48111438 -29.63708991 571.10005963 -29.66220033 581.71910131 C-29.71449672 603.56582711 -29.8024718 625.4122897 -29.91381836 647.25878906 C-29.25381836 647.25878906 -28.59381836 647.25878906 -27.91381836 647.25878906 C-27.31940445 647.90811401 -26.72499054 648.55743896 -26.11256409 649.22644043 C-23.43767211 651.69890143 -22.31728947 651.76377812 -18.73388672 651.77636719 C-17.70279282 651.78897583 -16.67169891 651.80158447 -15.60935974 651.8145752 C-14.50197952 651.80647827 -13.3945993 651.79838135 -12.25366211 651.79003906 C-11.11224258 651.79386597 -9.97082306 651.79769287 -8.79481506 651.80163574 C-6.3832206 651.8043566 -3.9715967 651.79698341 -1.56005859 651.78027344 C2.13844287 651.75884837 5.83500592 651.78008123 9.53344727 651.80566406 C11.87524844 651.80302121 14.21704841 651.7978971 16.55883789 651.79003906 C17.66824234 651.79813599 18.77764679 651.80623291 19.92066956 651.8145752 C21.46258217 651.79566223 21.46258217 651.79566223 23.03564453 651.77636719 C23.94069229 651.77318481 24.84574005 651.77000244 25.7782135 651.76672363 C28.14762053 651.44403601 28.14762053 651.44403601 29.70577908 649.80352783 C31.79416705 645.95363508 31.50658529 642.35008427 31.48059082 638.03503418 C31.48972748 636.61919013 31.48972748 636.61919013 31.49904871 635.17474318 C31.51573078 632.00406933 31.51089545 628.83379479 31.50610352 625.66308594 C31.51344074 623.39314861 31.52202594 621.12321502 31.5317688 618.85328674 C31.55402805 612.68193134 31.55691333 606.51070927 31.55502129 600.33931923 C31.55490181 595.19236862 31.56345652 590.04544649 31.5717988 584.89850378 C31.59214944 572.06547666 31.59317707 559.23254775 31.58599168 546.3995139 C31.58041408 535.25085115 31.60125059 524.10241804 31.63435215 512.95380896 C31.66807015 501.50886569 31.68278505 490.06407641 31.67863512 478.61907434 C31.67656323 472.19252837 31.68211506 465.76621116 31.70652771 459.33970642 C31.72871768 453.29857158 31.72698142 447.25791634 31.70660019 441.21677971 C31.7031766 438.99634876 31.70833681 436.775886 31.72258377 434.55549812 C31.74065754 431.53061362 31.72811538 428.50737688 31.7076416 425.48254395 C31.72015945 424.59811473 31.7326773 423.71368552 31.74557447 422.80245543 C31.68130283 417.75528147 31.68130283 417.75528147 28.75925446 413.71465302 C25.28714482 411.82360118 22.78292874 411.74152045 18.83618164 411.72753906 C18.14161865 411.72371216 17.44705566 411.71988525 16.73144531 411.71594238 C15.26227366 411.71322809 13.79305329 411.72055571 12.32397461 411.73730469 C10.11985682 411.75846576 7.91909619 411.73762832 5.71508789 411.71191406 C-7.58480698 411.68097862 -18.43632499 414.67219099 -29.72631836 421.88378906 C-30.9975354 422.67112427 -30.9975354 422.67112427 -32.29443359 423.47436523 C-34.84255994 425.05628221 -37.37830938 426.65675355 -39.91381836 428.25878906 C-41.39718938 429.18097887 -42.88151241 430.10163975 -44.36694336 431.02050781 C-50.18892453 434.62931997 -55.97132313 438.29405344 -61.72631836 442.00878906 C-65.05842509 444.13995925 -68.41711889 446.0988751 -71.91381836 447.94628906 C-78.27449447 451.33434151 -84.30248096 455.23285925 -90.36499023 459.12084961 C-91.15325195 459.62527588 -91.94151367 460.12970215 -92.75366211 460.64941406 C-93.45869873 461.10348633 -94.16373535 461.55755859 -94.89013672 462.02539062 C-98.73668136 464.36979206 -101.35847699 465.53656553 -105.91381836 465.50878906 C-106.75944336 465.51394531 -107.60506836 465.51910156 -108.47631836 465.52441406 C-111.22194112 465.22521158 -112.67214025 464.88400569 -114.91381836 463.25878906 C-117.39487151 459.0533482 -118.29290702 455.93502559 -118.31787109 451.07324219 C-118.33689735 449.27107239 -118.33689735 449.27107239 -118.35630798 447.43249512 C-118.35190453 445.50572937 -118.35190453 445.50572937 -118.34741211 443.54003906 C-118.35197875 442.19535052 -118.35728576 440.85066431 -118.36329651 439.50598145 C-118.37220553 436.69513433 -118.36982945 433.88457168 -118.35986328 431.07373047 C-118.34836673 427.48243037 -118.36860515 423.89211259 -118.39778042 420.30094147 C-118.41617752 417.52640615 -118.41584327 414.75210485 -118.4101429 411.9775238 C-118.40991624 410.01334455 -118.42677695 408.04918716 -118.44395447 406.08508301 C-118.35771356 395.03995115 -118.35771356 395.03995115 -113.91381836 390.25878906 C-112.11694336 388.71191406 -112.11694336 388.71191406 -110.16381836 387.50878906 C-109.37362305 387.0125 -108.58342773 386.51621094 -107.76928711 386.00488281 C-106.82698242 385.42867187 -105.88467773 384.85246094 -104.91381836 384.25878906 C-103.74223878 383.52210633 -102.57173936 382.78370407 -101.40209961 382.04394531 C-97.25342814 379.42603603 -93.0856924 376.83952111 -88.91381836 374.25878906 C-88.19484375 373.81341797 -87.47586914 373.36804688 -86.73510742 372.90917969 C-77.40033836 367.1358687 -68.00048114 361.49267729 -58.46850586 356.05004883 C-54.42023108 353.73584682 -50.48951796 351.33607357 -46.60131836 348.75878906 C-33.1312785 340.91820283 -15.82245011 342.76786588 -0.83178711 342.75488281 C1.79465392 342.74522793 4.42109338 342.73513444 7.04753113 342.72462463 C12.52845882 342.7055527 18.00927798 342.70096654 23.49023438 342.70288086 C29.80496862 342.70468839 36.11893847 342.67289265 42.43347913 342.62564987 C48.54498009 342.58157645 54.65611544 342.5709193 60.76776695 342.57271004 C63.35327992 342.56917875 65.93879909 342.55595877 68.52420998 342.53271294 C72.13771699 342.5032383 75.74925259 342.51196942 79.36279297 342.5300293 C80.42117874 342.51317078 81.47956451 342.49631226 82.57002258 342.47894287 C89.93019162 342.57217238 94.49882525 344.45416191 100.08618164 349.25878906 C104.31774088 353.81585286 106.33524291 357.41572584 106.33951473 363.65648556 C106.34513013 364.75863586 106.35074552 365.86078617 106.35653108 366.99633497 C106.35055944 368.81221509 106.35055944 368.81221509 106.34446716 370.66477966 C106.34814287 371.95098853 106.35181857 373.23719739 106.35560566 374.56238228 C106.36559907 378.13521776 106.36320994 381.70795519 106.35887873 385.28079808 C106.35640512 389.13295029 106.3654674 392.98507656 106.3732605 396.83721924 C106.38531207 403.51335022 106.39041377 410.18945733 106.39114189 416.86559868 C106.39246659 426.52366189 106.40756979 436.18166704 106.42663706 445.83970977 C106.45748843 461.5159354 106.48164976 477.19216251 106.49951172 492.8684082 C106.5005844 493.8068783 106.50165708 494.74534839 106.50276227 495.71225698 C106.51458356 506.183699 106.52478867 516.65514161 106.53320312 527.12658691 C106.53627703 530.9239909 106.53936582 534.72139487 106.54248047 538.51879883 C106.54324581 539.45582453 106.54401115 540.39285022 106.54479968 541.35827064 C106.55787446 556.97408715 106.58250431 572.58986164 106.61622387 588.20564705 C106.63653098 597.84101564 106.64680091 607.47629442 106.64423466 617.11168457 C106.64320074 623.71209473 106.652818 630.31243383 106.67087369 636.9128192 C106.68093292 640.7230423 106.68603163 644.53310823 106.67810631 648.34333992 C106.66962272 652.47097418 106.68413081 656.59820614 106.70091248 660.72581482 C106.69470066 661.93417085 106.68848884 663.14252687 106.68208879 664.38749975 C106.69031194 665.4922578 106.69853508 666.59701586 106.70700741 667.73525143 C106.70782186 668.68807977 106.70863632 669.64090811 106.70947546 670.62261003 C107.16171729 673.78738537 108.22452851 675.68100848 110.08618164 678.25878906 C113.16975796 679.80057722 116.41427252 679.40082138 119.79711914 679.39160156 C120.56166412 679.39255829 121.32620911 679.39351501 122.11392212 679.39450073 C123.73293134 679.39518176 125.35194328 679.39333285 126.97094727 679.38916016 C129.44431742 679.38382544 131.91750476 679.38910013 134.39086914 679.39550781 C135.96378621 679.39484673 137.53670316 679.39356494 139.10961914 679.39160156 C139.84828217 679.39362579 140.58694519 679.39565002 141.34799194 679.3977356 C146.31136018 679.424098 146.31136018 679.424098 151.08618164 678.25878906 C152.9787485 675.40706416 153.72605538 672.20088843 154.71118164 668.94628906 C157.17384994 662.15584338 160.94219497 658.3901126 167.33598423 655.10167694 C173.54252972 652.47739877 178.76412278 651.69272335 185.46679688 651.77636719 C186.45210892 651.77245468 187.43742096 651.76854218 188.45259094 651.76451111 C190.57609357 651.75856938 192.69963727 651.7616455 194.82311821 651.77293396 C198.20251284 651.79033639 201.58106226 651.78260889 204.96046448 651.76867676 C213.35835367 651.73916292 221.75607744 651.75213611 230.1539917 651.76385498 C237.2514591 651.77212443 244.34855519 651.76384171 251.44597054 651.73472595 C254.74209623 651.72773045 258.03753177 651.74418865 261.33360291 651.76184082 C279.02892702 651.75859023 295.03922574 648.73886018 311.77368164 643.07128906 C312.92360596 642.68400635 314.07353027 642.29672363 315.25830078 641.89770508 C324.57752406 638.64873535 332.82353012 634.61599887 341.08618164 629.25878906 C342.08649414 628.63617187 343.08680664 628.01355469 344.11743164 627.37207031 C361.29277275 616.36046049 376.47183197 604.15681563 388.08618164 587.25878906 C388.67012695 586.44667969 389.25407227 585.63457031 389.85571289 584.79785156 C394.61330401 578.16085086 398.87229732 571.24834066 403.08618164 564.25878906 C403.61083008 563.42347656 404.13547852 562.58816406 404.67602539 561.72753906 C407.45724793 556.85847357 409.18658344 551.51921485 411.08618164 546.25878906 C411.32771973 545.59685547 411.56925781 544.93492187 411.81811523 544.25292969 C413.44154304 539.75858683 414.9387104 535.23713655 416.34106445 530.66894531 C416.8241005 529.10651679 417.32255802 527.54874018 417.83911133 525.99707031 C422.27123461 512.39039328 422.6143821 498.75060077 422.71118164 484.57128906 C422.72421326 483.66130157 422.73724487 482.75131409 422.75067139 481.81375122 C422.89098502 469.27403211 421.36834777 458.22468924 417.68603516 446.23776245 C416.90070545 443.6468856 416.23034875 441.03156852 415.56665039 438.40722656 C411.36343343 422.65191161 405.29134203 408.75969097 396.08618164 395.25878906 C395.60665039 394.50597656 395.12711914 393.75316406 394.63305664 392.97753906 C388.71528163 383.74320882 381.70114377 375.56318916 373.73852539 368.03613281 C372.08618164 366.25878906 372.08618164 366.25878906 372.08618164 364.25878906 C371.09618164 363.92878906 370.10618164 363.59878906 369.08618164 363.25878906 C368.36946289 362.54078125 367.65274414 361.82277344 366.91430664 361.08300781 C350.47587393 344.66728012 328.86852203 334.30286828 307.06274414 327.32910156 C306.00385986 326.98637207 304.94497559 326.64364258 303.85400391 326.29052734 C301.77316992 325.62074256 299.68786621 324.96463208 297.59765625 324.32470703 C286.25896116 320.70211474 275.88381198 314.04881658 269.71118164 303.57128906 C267.20628045 298.46514433 265.85303702 294.60783686 265.58618164 288.88378906 C261.66953164 226.73104814 230.66114573 169.78600436 185.08618164 128.25878906 C179.36435975 123.52669985 173.27035177 119.35680771 167.08618164 115.25878906 C165.99821289 114.51628906 164.91024414 113.77378906 163.78930664 113.00878906 C160.90900294 111.05810719 158.00424503 109.15242595 155.08618164 107.25878906 C153.89855238 106.47773558 152.711059 105.69647544 151.52368164 104.91503906 C142.51099894 99.01244226 133.85262865 94.42264347 123.72290039 90.70019531 C120.73240928 89.5149201 117.89774432 88.2160766 115.00024414 86.82910156 C108.77159285 83.9703008 102.40335219 82.24490917 95.77368164 80.57128906 C93.50636511 79.98555494 91.23942438 79.39836376 88.97290039 78.80957031 C87.49116333 78.43312378 87.49116333 78.43312378 85.97949219 78.04907227 C83.94058883 77.49216313 81.91923305 76.86893787 79.91455078 76.19921875 C76.88928706 75.19332183 73.9866282 74.66727291 70.83618164 74.19628906 C65.29258733 73.36199191 65.29258733 73.36199191 63.08618164 72.25878906 C61.30559007 72.15779079 59.52123334 72.12041274 57.73779297 72.11352539 C56.61935501 72.10714554 55.50091705 72.10076569 54.34858704 72.0941925 C53.13406357 72.09307968 51.9195401 72.09196686 50.66821289 72.09082031 C48.79959846 72.08582771 48.79959846 72.08582771 46.89323425 72.08073425 C44.25105228 72.07566209 41.60897308 72.07289444 38.96679688 72.07348633 C36.26360366 72.07356749 33.56058024 72.06664654 30.85742188 72.05297852 C26.96096621 72.03462936 23.0647075 72.02974808 19.16821289 72.02832031 C17.36160942 72.01754204 17.36160942 72.01754204 15.51850891 72.00654602 C9.62362582 72.02253649 4.64968766 72.28491827 -0.91381836 74.25878906 C-2.74223681 74.54250917 -4.57626209 74.79199872 -6.41381836 75.00878906 C-21.81196543 77.29986285 -36.85584092 81.47825695 -50.86694336 88.27734375 C-53.1278203 89.36139973 -55.40879678 90.39348327 -57.69506836 91.42285156 C-67.03454426 95.66790075 -75.52415889 100.31519126 -83.91381836 106.25878906 C-85.1475127 107.07756228 -86.38469867 107.8910912 -87.62475586 108.70019531 C-88.59880371 109.3374353 -88.59880371 109.3374353 -89.5925293 109.98754883 C-90.83112033 110.79654827 -92.07119645 111.60328193 -93.31323242 112.40698242 C-103.04992263 118.83120428 -111.42623182 126.47073769 -119.60131836 134.75878906 C-120.49915039 135.65726563 -121.39698242 136.55574219 -122.32202148 137.48144531 C-130.6967104 145.91135195 -138.06214212 154.5543703 -144.91381836 164.25878906 C-145.64858398 165.28230469 -146.38334961 166.30582031 -147.14038086 167.36035156 C-157.1375648 181.48008558 -164.99515665 196.66170615 -172.27709961 212.32128906 C-172.67485596 213.17376221 -173.0726123 214.02623535 -173.48242188 214.90454102 C-174.25133098 216.55883171 -175.01388523 218.21609593 -175.76904297 219.87670898 C-178.44247358 225.64150407 -181.1605898 230.53430475 -186.72631836 233.94628906 C-187.35151367 234.34203125 -187.97670898 234.73777344 -188.62084961 235.14550781 C-198.7503895 240.06359788 -213.40057134 240.43075849 -224.19897461 237.67578125 C-230.90042205 235.16107309 -237.36435815 230.56758991 -240.91381836 224.25878906 C-246.74149094 210.95731562 -246.6922395 201.90751398 -241.91381836 188.25878906 C-240.13620107 183.91907072 -238.17617354 179.68153158 -236.16381836 175.44628906 C-235.63377197 174.31698975 -235.10372559 173.18769043 -234.55761719 172.02416992 C-233.02111803 168.76345241 -231.47067551 165.50982722 -229.91381836 162.25878906 C-229.30836182 160.98793457 -229.30836182 160.98793457 -228.69067383 159.69140625 C-224.60021151 151.14509864 -220.07541891 143.20842654 -214.91381836 135.25878906 C-214.27549072 134.26838623 -213.63716309 133.2779834 -212.97949219 132.25756836 C-210.99230025 129.18618461 -208.98623736 126.12783898 -206.97631836 123.07128906 C-206.31180664 122.04326172 -205.64729492 121.01523437 -204.96264648 119.95605469 C-201.23972857 114.31209668 -197.43353844 109.40219355 -192.47802734 104.78881836 C-190.81049116 103.32437401 -190.81049116 103.32437401 -189.91381836 101.25878906 C-189.25381836 101.25878906 -188.59381836 101.25878906 -187.91381836 101.25878906 C-187.65858398 100.70707031 -187.40334961 100.15535156 -187.14038086 99.58691406 C-181.05830055 88.04258329 -171.89020817 79.59323232 -161.61987305 71.89916992 C-158.68130228 69.68245062 -155.97850303 67.45784613 -153.47631836 64.75878906 C-148.85578547 59.89867299 -143.1799887 56.28745602 -137.68530273 52.49658203 C-136.09140192 51.38287239 -134.52415525 50.23124716 -132.96069336 49.07519531 C-118.92720897 38.85026351 -103.08795924 31.13407865 -87.47631836 23.63378906 C-86.64358398 23.23232666 -85.81084961 22.83086426 -84.95288086 22.41723633 C-80.3650953 20.25672022 -75.78707431 18.46918507 -70.95654297 16.92919922 C-68.20574191 16.02640255 -65.56920596 14.90945702 -62.91381836 13.75878906 C-53.73127124 9.89123454 -44.65463861 7.36394802 -34.91381836 5.25878906 C-34.03338867 5.0615625 -33.15295898 4.86433594 -32.24584961 4.66113281 C-27.01777567 3.53905017 -21.89299133 2.92221259 -16.55444336 2.60253906 C-13.85759229 2.35376573 -13.85759229 2.35376573 -11.24339294 1.253479 C-7.43082571 0.11449798 -3.93748351 -0.02227949 0 0 Z " fill="#FDFDFD" transform="translate(498.913818359375,136.7412109375)"/>
<path d="M0 0 C0.99 0.33 1.98 0.66 3 1 C3 1.66 3 2.32 3 3 C1.03852126 4.38938077 -0.96166576 5.7260411 -3 7 C-3.66 6.34 -4.32 5.68 -5 5 C-3.35 3.35 -1.7 1.7 0 0 Z " fill="#0D0D11" transform="translate(407,634)"/>
<path d="M0 0 C0.97608217 2.92824652 1.08226668 4.95613276 1 8 C-0.175625 8.2165625 -0.175625 8.2165625 -1.375 8.4375 C-3.96421018 8.87798925 -3.96421018 8.87798925 -6 10 C-4.34832443 6.4213696 -2.21713508 3.25179812 0 0 Z " fill="#202020" transform="translate(351,304)"/>
<path d="M0 0 C0.99 0.33 1.98 0.66 3 1 C2.07038578 2.15224028 1.1309875 3.29659176 0.1875 4.4375 C-0.59560547 5.39462891 -0.59560547 5.39462891 -1.39453125 6.37109375 C-3 8 -3 8 -6 9 C-6 6 -6 6 -4.6875 4.39453125 C-4.130625 3.87246094 -3.57375 3.35039063 -3 2.8125 C-2.443125 2.28269531 -1.88625 1.75289062 -1.3125 1.20703125 C-0.6628125 0.60955078 -0.6628125 0.60955078 0 0 Z " fill="#0B0B0D" transform="translate(921,795)"/>
<path d="M0 0 C0.66 0.66 1.32 1.32 2 2 C0.63875 3.11375 0.63875 3.11375 -0.75 4.25 C-3.3069423 6.37674584 -5.69110193 8.60229816 -8 11 C-8 8 -8 8 -6.25 5.95703125 C-5.5075 5.24933594 -4.765 4.54164063 -4 3.8125 C-2.88625 2.73935547 -2.88625 2.73935547 -1.75 1.64453125 C-1.1725 1.10183594 -0.595 0.55914062 0 0 Z " fill="#EDECEF" transform="translate(78,470)"/>
<path d="M0 0 C1.33333333 5.33333333 1.33333333 5.33333333 0 8 C-3.0625 9.25 -3.0625 9.25 -6 10 C-4.02 6.7 -2.04 3.4 0 0 Z " fill="#1F1F1F" transform="translate(956,752)"/>
<path d="M0 0 C0.99 0.33 1.98 0.66 3 1 C2.236875 1.7425 1.47375 2.485 0.6875 3.25 C-1.95571199 5.823554 -1.95571199 5.823554 -3.6875 8.3125 C-4.3371875 9.1478125 -4.3371875 9.1478125 -5 10 C-5.66 10 -6.32 10 -7 10 C-5.6062718 5.56541027 -3.39417765 3.12621626 0 0 Z " fill="#F1F1F1" transform="translate(873,741)"/>
<path d="M0 0 C0.66 0.33 1.32 0.66 2 1 C-0.9905167 4.33557632 -3.93184627 6.15083921 -8 8 C-6.49776416 3.79373966 -3.71449966 2.26099979 0 0 Z " fill="#1D1D1E" transform="translate(356,478)"/>
<path d="M0 0 C0.66 1.32 1.32 2.64 2 4 C0.75 5.5 0.75 5.5 -1 7 C-2.32 7 -3.64 7 -5 7 C-4.34 5.68 -3.68 4.36 -3 3 C-2.34 3 -1.68 3 -1 3 C-0.67 2.01 -0.34 1.02 0 0 Z " fill="#1D1D21" transform="translate(317,365)"/>
<path d="M0 0 C0.66 0.33 1.32 0.66 2 1 C0.875 3.4375 0.875 3.4375 -1 6 C-4.1875 6.8125 -4.1875 6.8125 -7 7 C-4.66666667 4.66666667 -2.33333333 2.33333333 0 0 Z " fill="#262629" transform="translate(397,254)"/>
<path d="M0 0 C0.66 0 1.32 0 2 0 C2 3 2 3 0.625 4.6875 C-1 6 -1 6 -3 6 C-3.33 6.99 -3.66 7.98 -4 9 C-4.66 8.34 -5.32 7.68 -6 7 C-5.04882866 5.8274869 -4.08882991 4.66212985 -3.125 3.5 C-2.59132813 2.8503125 -2.05765625 2.200625 -1.5078125 1.53125 C-0.76144531 0.77328125 -0.76144531 0.77328125 0 0 Z " fill="#EBEAEC" transform="translate(309,238)"/>
<path d="M0 0 C0.66 0 1.32 0 2 0 C2.144375 0.78375 2.28875 1.5675 2.4375 2.375 C2.87798925 4.96421018 2.87798925 4.96421018 4 7 C3.01 7.33 2.02 7.66 1 8 C-0.42944945 5.64561267 -1.08661261 4.51967567 -0.625 1.75 C-0.41875 1.1725 -0.2125 0.595 0 0 Z " fill="#111015" transform="translate(98,705)"/>
<path d="M0 0 C0.33 0.99 0.66 1.98 1 3 C-1.475 4.485 -1.475 4.485 -4 6 C-4.33 4.68 -4.66 3.36 -5 2 C-3.35 1.34 -1.7 0.68 0 0 Z " fill="#0B0B0B" transform="translate(128,431)"/>
<path d="M0 0 C0.66 0.99 1.32 1.98 2 3 C-0.97 5.475 -0.97 5.475 -4 8 C-4.66 7.67 -5.32 7.34 -6 7 C-4.02 4.69 -2.04 2.38 0 0 Z " fill="#2E2D30" transform="translate(366,284)"/>
<path d="M0 0 C0.66 0.66 1.32 1.32 2 2 C1.75 4.0625 1.75 4.0625 1 6 C0.01 6.495 0.01 6.495 -1 7 C-1.625 5.1875 -1.625 5.1875 -2 3 C-1.34 2.01 -0.68 1.02 0 0 Z " fill="#111115" transform="translate(981,703)"/>
</svg>
